<svg xmlns="http://www.w3.org/2000/svg" xmlns:xlink="http://www.w3.org/1999/xlink" viewBox="0 0 270 240"><defs><style>.cls-1,.cls-11,.cls-13,.cls-16,.cls-19,.cls-23,.cls-5,.cls-8{fill:none;}.cls-2{isolation:isolate;}.cls-3{fill:#231f20;opacity:0.1;mix-blend-mode:multiply;}.cls-4{fill:#404041;}.cls-5{stroke:#929497;stroke-width:0.68px;}.cls-11,.cls-13,.cls-16,.cls-19,.cls-21,.cls-23,.cls-5,.cls-8{stroke-miterlimit:10;}.cls-6{fill:#8d6f50;}.cls-7{fill:#c3996b;}.cls-8{stroke:#1b75bb;stroke-width:4.12px;}.cls-9{fill:#1b75bb;}.cls-10{fill:#e7532f;}.cls-11{stroke:#aa3c26;}.cls-11,.cls-16,.cls-19{stroke-width:1.03px;}.cls-12{fill:#c64429;}.cls-13{stroke:#e7532f;stroke-width:3.09px;}.cls-14{fill:#f0d0b3;}.cls-15{fill:#7d4921;}.cls-16{stroke:#7d4921;}.cls-17{fill:#25a9e0;}.cls-18{clip-path:url(#clip-path);}.cls-19{stroke:#9f5f32;}.cls-20{clip-path:url(#clip-path-2);}.cls-21{fill:#ced1d1;stroke-width:1.15px;}.cls-21,.cls-23{stroke:#9a9a9a;}.cls-22{fill:#9a9a9a;}.cls-23{stroke-width:0.57px;}.cls-24{fill:#d2b5a0;}.cls-25{fill:#ca8b83;}</style><clipPath id="clip-path"><path class="cls-1" d="M78.79,48.74a92.38,92.38,0,0,1,26.42-13.92c28.32-9.65,56-5.22,65.88,9.58C154.09,50.3,104.34,65.28,78.79,48.74Z"/></clipPath><clipPath id="clip-path-2"><path class="cls-1" d="M59.13,84.74c-2-11.92,5.8-25.34,19.66-36C78.79,48.74,83.89,77.11,59.13,84.74Z"/></clipPath></defs><title>Artboard 29 copy 5</title><g class="cls-2"><g id="Layer_1" data-name="Layer 1"><polygon class="cls-3" points="54.04 204.17 194.66 198.69 199.56 207.58 53.27 208.24 54.04 204.17"/><path class="cls-3" d="M219,211.25s-167,.45-165,3.12,4.29,11.91,4.29,11.91L226,218Z"/><polyline class="cls-4" points="79.96 172.73 86.16 213.85 76.03 213.85 76.09 171.84 82.22 172.73"/><polyline class="cls-4" points="57.2 167.11 63.4 208.24 53.27 208.24 53.33 166.22 59.45 167.11"/><polyline class="cls-4" points="212.66 172.73 218.86 213.85 208.73 213.85 208.79 171.84 214.91 172.73"/><polyline class="cls-4" points="189.9 167.11 196.1 208.24 185.97 208.24 186.03 166.22 192.15 167.11"/><polygon class="cls-4" points="173.58 99.29 186.04 96.72 192.49 153.87 218.86 161.09 218.86 179.91 180.03 167.19 173.58 99.29"/><path class="cls-5" d="M208.81,176.62l-.08-13,10.13-2.5"/><polyline class="cls-5" points="208.73 163.59 183.94 154.83 176.71 98.65"/><polygon class="cls-6" points="207.7 168.83 207.7 172.41 88.53 177.77 87.37 172.12 207.7 168.83"/><polygon class="cls-7" points="84.33 168.56 202.28 165.81 207.7 168.83 84.33 174.43 84.33 168.56"/><polygon class="cls-6" points="190.05 160.63 190.05 164.2 70.88 169.57 69.71 163.91 190.05 160.63"/><polygon class="cls-7" points="66.67 160.35 184.62 157.61 190.05 160.63 66.67 166.22 66.67 160.35"/><polygon class="cls-7" points="54.88 119.5 176.71 118.37 175.34 106.63 51.67 108.21 54.88 119.5"/><polygon class="cls-6" points="54.88 120.62 176.02 119.75 176.71 118.37 175.34 107.75 51.67 109.33 54.88 120.62"/><polygon class="cls-7" points="54.88 119.5 176.71 118.37 175.34 106.63 51.67 108.21 54.88 119.5"/><polygon class="cls-6" points="57.26 138.11 178.39 137.24 179.08 135.86 177.71 125.25 54.04 126.83 57.26 138.11"/><polygon class="cls-7" points="57.26 136.99 179.08 135.86 177.71 124.12 54.04 125.7 57.26 136.99"/><polygon class="cls-6" points="59.62 154.53 180.76 153.66 181.45 152.28 180.08 141.67 56.41 143.25 59.62 154.53"/><polygon class="cls-7" points="59.62 153.41 181.45 152.28 180.08 140.54 56.41 142.12 59.62 153.41"/><polygon class="cls-4" points="44.03 99.29 56.49 96.72 62.94 153.87 89.3 161.09 89.3 179.91 50.47 167.19 44.03 99.29"/><path class="cls-5" d="M79.26,176.62l-.08-13,10.13-2.5"/><polyline class="cls-5" points="79.17 163.59 54.38 154.83 47.16 98.65"/><path class="cls-8" d="M113.83,157.61s25.12,11.5,15.5,57.08"/><path class="cls-4" d="M127.29,214.69s21.15-12.87,21.49,0C148.78,214.69,140.12,217.68,127.29,214.69Z"/><path class="cls-8" d="M133.1,156.54s31,10.67,21.39,56.24"/><path class="cls-4" d="M152.46,212.79s21.15-12.87,21.49,0C173.95,212.79,165.29,215.78,152.46,212.79Z"/><path class="cls-9" d="M107.8,135.54s-8.65,28.05,10.42,27.41l23.13-2.08-7.79-25.25Z"/><path class="cls-10" d="M142.58,151.68c-11.77-.43-25.59,5.4-37.4,5.53-1.31-14.52-2.93-48.11-2.93-48.11l24.16-10.46C124.67,108.28,136.64,137.91,142.58,151.68Z"/><path class="cls-11" d="M122.45,103.08s-2.87,21.8-17.25,3.55"/><path class="cls-12" d="M101.42,133.67c11.86,5.18,28.51,1.34,36.81-9.11l2.42,1.92c-6.47,8.14-17.17,12.63-27.53,12.63A32.54,32.54,0,0,1,101.38,137C101.45,135.84,101.45,134.74,101.42,133.67Z"/><path class="cls-10" d="M113.11,138.09c10.37,0,21.06-4.49,27.53-12.63l-2.42-1.92c-9.08,11.43-28.16,15-40,7.41-5.38-3.64-6.74-11.49-4.58-16.24,1.72-3.78,5.24-5.18,9.91-3.93l.79-3c-6.11-1.62-11.17.49-13.51,5.64-2.73,6-1.1,15.51,5.69,20.1A30.88,30.88,0,0,0,113.11,138.09Z"/><line class="cls-13" x1="124.34" y1="102.34" x2="157.3" y2="115.6"/><ellipse class="cls-14" cx="116.83" cy="68.91" rx="60.02" ry="36.01" transform="translate(-15.98 41.37) rotate(-18.82)"/><path class="cls-15" d="M78.79,48.74a92.38,92.38,0,0,1,26.42-13.92c28.32-9.65,56-5.22,65.88,9.58C154.09,50.3,104.34,65.28,78.79,48.74Z"/><path class="cls-16" d="M144.42,59.51s-2.57,12.83-13.51,4.6"/><path class="cls-16" d="M112,70.57s-2.57,12.83-13.51,4.6"/><path class="cls-15" d="M59.13,84.74c-2-11.92,5.8-25.34,19.66-36C78.79,48.74,83.89,77.11,59.13,84.74Z"/><path class="cls-17" d="M75.11,45.08s1.62-1.84,4.29-4.63c10.52-11,37.28-36.78,44.67-22.33Z"/><path class="cls-17" d="M68.1,48.68s-11.91-7.26,1.4-14S77.16,44,77.16,44Z"/><path class="cls-16" d="M119.47,90.9s-13.79,16-39.84-2.6"/><path class="cls-15" d="M82.45,85.57s-7.36-1.95-6.52,5C75.93,90.61,76.51,85.79,82.45,85.57Z"/><g class="cls-18"><path class="cls-19" d="M78.79,48.74s62.11-27.4,100.29-1.31c0,0-1.64,3.64-2.37,3S187.58,33.15,78.79,48.74Z"/><path class="cls-19" d="M179.08,43S95.76,57.49,69,46.15"/></g><g class="cls-20"><path class="cls-19" d="M78.79,46.55C78.29,46.7,79,75,57.5,84.48c0,0,17-20.65,18.53-37.93"/></g><path class="cls-21" d="M194,92.14c1.15-2.92-.13-6-2.85-6.87l-34.49-13a5.32,5.32,0,0,0-6.53,3.88l-19.82,64a5.21,5.21,0,0,0,3.46,6.7l28.94,10.4a6.44,6.44,0,0,0,7.15-4Z"/><polygon class="cls-22" points="157.3 136.04 156.93 137.32 150.15 135.05 150.38 133.91 157.3 136.04"/><line class="cls-23" x1="165.75" y1="143.55" x2="141.3" y2="134.86"/><line class="cls-23" x1="164.88" y1="145.36" x2="140.42" y2="136.68"/><path class="cls-14" d="M181.56,132a14.9,14.9,0,0,0-.8-9.49c-1.93-4.34-6-4.18-6.11,1,0,3.22,1.93,5.47,3.86,7.56-.8-2.73-6.92-8-8.36-3.38-1.45,4.5,6.43,5.31,9.33,4.83a10.67,10.67,0,0,0-4.5.8c-2.09,1-4.34,5-1.13,6.27,2.57,1.13,9.17-6.43,7.72-7.56"/><path class="cls-14" d="M131.89,128.48a12.59,12.59,0,0,0,.68,8c1.63,3.67,5,3.53,5.16-.82,0-2.72-1.63-4.62-3.26-6.39.68,2.31,5.84,6.8,7.07,2.85s-5.44-4.49-7.88-4.08a9,9,0,0,0,3.81-.68c1.77-.82,3.67-4.21,1-5.3-2.17-1-7.75,5.44-6.52,6.39"/><path class="cls-24" d="M132.4,77s-.87,14.91-11,3.52C121.35,80.5,128.78,85.32,132.4,77Z"/><path class="cls-25" d="M121.35,80.5s7.45,7.3,11-3.52C132.4,77,128.46,83.8,121.35,80.5Z"/></g></g></svg>