<svg xmlns="http://www.w3.org/2000/svg" xmlns:xlink="http://www.w3.org/1999/xlink" viewBox="0 0 450 480"><defs><style>.cls-1{isolation:isolate;}.cls-2{opacity:0.3;mix-blend-mode:multiply;fill:url(#radial-gradient);}.cls-3{fill:url(#linear-gradient);}</style><radialGradient id="radial-gradient" cx="5919.93" cy="-55938.89" r="93.76" gradientTransform="translate(-4017.87 6974.5) scale(0.73 0.12)" gradientUnits="userSpaceOnUse"><stop offset="0" stop-color="#404041"/><stop offset="1" stop-color="#231f20" stop-opacity="0"/></radialGradient><linearGradient id="linear-gradient" x1="288.7" y1="400.66" x2="215.46" y2="75.96" gradientUnits="userSpaceOnUse"><stop offset="0" stop-color="#e93722"/><stop offset="1" stop-color="#f86f25"/></linearGradient></defs><title>Artboard 1 copy 23</title><g class="cls-1"><g id="Layer_1" data-name="Layer 1"><ellipse class="cls-2" cx="275.81" cy="410.17" rx="68" ry="11"/><path class="cls-3" d="M289.71,94.78A69.41,69.41,0,0,1,294.06,82a29,29,0,0,1,6.36-8.81,31.47,31.47,0,0,1,10.53-6.2,106.45,106.45,0,0,1,17-4.52q18.84-3.66,25.23-1t7.58,8.8a46.68,46.68,0,0,1,.73,5,26.15,26.15,0,0,1-.36,5.69,63.62,63.62,0,0,1-2,8.46q-1.49,4.94-4.26,13.3Q345.33,131.9,336.38,160t-16.51,50.89Q312.3,233.66,307,249.35t-6.41,19.83q-3.36,10.44-4.9,17.58t.65,18.46q2.38,12.26,6.33,31.29t8,39.77q2.38,12.26-4,18.62T280.6,405.1q-19.79,3.85-27.49-.53t-9.8-15.21l-2.47-12.72q-1.92-9.89-4.36-21.16T232,333.62l-2.89-14.84a58.6,58.6,0,0,0-4.44-14,91.84,91.84,0,0,0-8.87-14.17q-6-8.12-16.18-20.33l-26.75-32q-12.07-14.27-24.46-29T125.25,182q-10.76-12.58-19.32-22.65T93,144.27q-5.06-5.86-8.47-9.6a20.85,20.85,0,0,1-4.7-10.33q-2.65-13.66,29.86-20a102.84,102.84,0,0,1,17-2.07,37.86,37.86,0,0,1,12.28,1.52,25.16,25.16,0,0,1,9.06,5.09,55.32,55.32,0,0,1,7.86,9L211,192.73q11.78,15.32,18.46,24.53t10.28,13.89c2.4,3.13,4.16,5.06,5.29,5.82a4.6,4.6,0,0,0,3.57.77,5.46,5.46,0,0,0,3.26-2.1q1.37-1.73,3.15-7.7t4.71-17.3q2.93-11.32,7.93-30.88Z"/></g></g></svg>